<?xml version="1.0" standalone="no"?>
<!DOCTYPE svg PUBLIC "-//W3C//DTD SVG 20010904//EN"
 "http://www.w3.org/TR/2001/REC-SVG-20010904/DTD/svg10.dtd">
<svg version="1.0" xmlns="http://www.w3.org/2000/svg"
 width="594.000000pt" height="594.000000pt" viewBox="0 0 594.000000 594.000000"
 preserveAspectRatio="xMidYMid meet">

<g transform="translate(0.000000,594.000000) scale(0.100000,-0.100000)"
fill="#000000" stroke="none">
<path d="M2885 4601 c-11 -5 -28 -18 -38 -29 -19 -20 -19 -20 -50 -1 -19 11
-50 19 -75 19 -92 0 -167 -70 -179 -168 l-6 -51 -71 -6 c-39 -3 -93 -5 -121
-3 l-50 3 -1 -35 c-1 -35 -76 -170 -95 -170 -5 0 -18 -9 -29 -20 -16 -16 -18
-25 -10 -40 8 -15 5 -31 -15 -69 -14 -28 -25 -54 -25 -58 1 -4 14 18 31 50 16
31 33 57 38 57 10 0 21 -49 21 -90 0 -33 -25 -86 -48 -101 -16 -10 -16 -10 0
-5 11 3 28 -4 43 -20 24 -24 24 -25 11 -94 -14 -78 -13 -75 -42 -84 -15 -4
-23 0 -30 16 -6 13 -8 16 -6 8 2 -8 6 -34 8 -57 3 -39 0 -45 -40 -78 -27 -22
-49 -33 -60 -29 -23 9 -32 -22 -12 -41 9 -9 16 -12 16 -6 0 18 15 13 80 -25
87 -52 90 -64 32 -113 -26 -23 -55 -41 -65 -41 -12 0 -17 -6 -15 -17 2 -12 12
-17 25 -16 36 4 133 -46 133 -68 0 -10 9 -24 19 -31 13 -8 18 -21 16 -42 -1
-17 0 -21 2 -8 2 12 13 26 23 32 15 8 25 2 58 -38 41 -50 44 -71 9 -73 -21 -1
-21 -2 -2 -6 11 -3 27 -13 35 -24 8 -10 26 -20 40 -22 18 -3 33 -18 52 -53 15
-27 27 -53 27 -59 -3 -26 3 -35 21 -35 11 0 20 6 20 14 0 8 9 24 20 37 l19 24
1 -22 c0 -47 43 -134 91 -187 73 -80 121 -97 299 -106 129 -7 160 -12 280 -49
153 -46 227 -59 258 -42 32 17 57 67 91 179 51 174 89 230 170 252 85 23 95
78 37 226 -55 143 -55 154 -3 254 65 122 88 205 94 335 16 318 -144 566 -413
640 -54 15 -62 21 -73 51 -7 18 -26 44 -42 59 -42 34 -126 35 -185 1 -40 -23
-41 -23 -53 -4 -14 23 -70 48 -107 48 -15 0 -35 7 -45 16 -21 19 -86 27 -114
15z m-351 -259 c9 -15 -99 -113 -116 -107 -8 3 -28 -4 -44 -18 -27 -21 -125
-67 -145 -67 -5 0 12 34 38 75 30 49 52 75 64 75 10 0 23 9 29 19 10 19 27 23
137 29 17 1 34 -2 37 -6z m151 -114 c35 -45 63 -83 62 -84 -1 -2 -65 5 -141
14 -121 15 -140 20 -146 37 -6 16 2 31 38 68 39 40 52 47 84 47 36 0 42 -5
103 -82z m-321 -63 c8 -21 -104 -204 -126 -205 -13 0 -17 12 -20 58 -6 83 9
111 73 138 66 27 66 27 73 9z m231 -25 c137 -15 145 -17 145 -39 0 -26 -104
-96 -142 -96 -25 0 -39 11 -82 65 -72 89 -74 94 -45 87 13 -3 69 -11 124 -17z
m-93 -77 c33 -40 57 -77 53 -83 -12 -20 -261 -51 -276 -34 -6 8 8 39 46 100
50 81 58 89 86 89 27 0 40 -11 91 -72z m328 -64 c28 -55 31 -89 7 -89 -21 0
-172 43 -184 53 -21 16 -16 23 42 65 75 53 97 48 135 -29z m-267 -69 c9 -11
25 -20 34 -20 13 -1 32 -31 66 -103 26 -57 47 -106 47 -110 0 -4 -31 10 -69
30 -55 30 -71 44 -75 66 -8 40 -49 56 -88 34 -29 -16 -31 -16 -107 19 -61 28
-78 40 -74 53 4 14 25 20 111 30 59 7 112 14 117 16 18 6 20 5 38 -15z m190
-21 c68 -18 85 -27 95 -47 11 -23 7 -33 -36 -99 -26 -40 -53 -73 -60 -73 -16
0 -125 227 -116 242 3 5 12 7 20 4 8 -3 52 -15 97 -27z m-330 -102 c48 -20 33
-40 -73 -92 -93 -46 -101 -48 -117 -33 -14 15 -15 25 -3 90 16 95 31 105 110
70 30 -13 67 -29 83 -35z m486 5 c14 -27 38 -126 34 -139 -6 -17 -163 -18
-163 -2 0 15 100 159 111 159 5 0 13 -8 18 -18z m-429 -77 c8 -10 10 -33 5
-74 -5 -48 -12 -63 -31 -76 -15 -9 -24 -25 -24 -40 0 -20 -11 -30 -62 -56 -50
-25 -66 -29 -80 -20 -10 6 -24 11 -31 11 -8 0 -19 15 -25 33 l-11 32 5 -35 c2
-21 -1 -42 -10 -53 -13 -17 -18 -15 -84 25 -78 46 -78 47 -13 92 33 23 42 25
64 15 14 -6 28 -17 30 -23 2 -6 3 -4 2 5 -1 9 6 21 16 28 11 6 19 20 19 31 0
15 24 32 98 69 108 56 114 57 132 36z m147 -22 c73 -38 75 -60 10 -85 -23 -9
-58 -23 -78 -32 -29 -12 -40 -13 -52 -3 -23 18 -3 129 27 144 26 13 18 15 93
-24z m313 -81 c0 -4 -31 -38 -68 -75 -60 -59 -72 -67 -95 -62 -21 6 -26 14
-29 43 -2 30 3 44 27 69 28 31 34 33 98 33 37 0 67 -3 67 -8z m635 -7 c65 -8
155 -15 198 -15 l79 0 -6 -27 c-4 -16 -30 -74 -58 -131 -59 -118 -59 -99 9
-295 47 -137 45 -142 -60 -142 -41 0 -78 -3 -82 -7 -4 -3 -17 -55 -30 -115
-26 -121 -81 -301 -98 -322 -16 -19 -99 -9 -227 29 -58 18 -107 34 -109 36 -2
2 10 24 28 49 44 61 77 138 92 213 22 106 -12 239 -87 338 -34 46 -39 79 -18
112 48 75 207 270 227 280 12 6 22 11 22 11 0 1 54 -6 120 -14z m-873 -32 c21
-20 28 -36 28 -64 0 -21 -4 -41 -10 -44 -5 -3 -48 6 -95 21 -108 33 -112 51
-22 87 34 15 64 26 66 27 3 0 18 -12 33 -27z m239 -70 c-7 -37 -19 -103 -28
-145 -14 -67 -19 -78 -37 -78 -27 0 -88 90 -75 111 5 8 9 25 9 38 0 18 20 43
68 87 37 34 69 60 71 58 2 -1 -2 -34 -8 -71z m-485 -30 c29 -19 78 -109 70
-129 -8 -20 -26 -18 -126 17 -64 22 -90 36 -90 48 0 12 65 56 118 80 1 0 14
-6 28 -16z m164 -6 c66 -20 75 -26 78 -49 2 -20 -6 -33 -38 -58 -31 -24 -44
-30 -53 -21 -6 6 -20 11 -32 11 -15 0 -28 15 -48 56 -26 53 -27 57 -10 70 23
17 16 18 103 -9z m-207 -123 c75 -24 87 -31 87 -51 0 -18 -8 -24 -42 -33 -24
-6 -58 -16 -77 -22 -28 -9 -35 -8 -43 6 -5 9 -18 16 -28 16 -11 0 -20 5 -20
11 0 7 -11 0 -25 -15 l-25 -27 -60 27 c-33 15 -60 29 -60 33 0 6 64 61 87 74
6 4 22 3 35 -2 17 -6 29 -5 43 5 11 8 24 13 30 11 5 -3 49 -17 98 -33z m345
26 c22 0 84 -94 76 -115 -3 -8 -10 -15 -15 -15 -26 0 -189 56 -189 65 1 16 83
74 98 69 8 -2 21 -4 30 -4z m-29 -127 c125 -38 128 -47 34 -123 -87 -70 -100
-67 -137 38 -25 70 -25 76 -10 94 10 10 20 18 22 18 3 0 44 -12 91 -27z m-214
-3 c4 -13 -4 -44 -23 -84 -26 -55 -34 -64 -61 -68 -25 -4 -37 2 -66 32 -33 33
-34 38 -23 67 10 27 20 33 82 51 90 26 84 25 91 2z m97 -89 c23 -65 24 -69 7
-90 -13 -16 -28 -21 -66 -21 -44 0 -51 3 -62 27 -10 22 -8 35 15 90 24 55 30
63 54 63 25 0 30 -7 52 -69z m459 3 c86 -43 130 -118 130 -221 0 -141 -92
-240 -233 -251 -52 -4 -58 -7 -67 -32 -9 -27 -11 -28 -51 -19 -63 14 -92 33
-146 92 -92 100 -109 217 -38 259 20 12 37 31 41 47 3 14 15 32 25 39 10 8 39
31 64 53 25 21 52 39 60 39 25 0 15 -15 -22 -35 -42 -22 -76 -65 -94 -116 -9
-25 -18 -35 -29 -33 -21 6 -45 -11 -37 -25 4 -6 17 -11 29 -12 19 0 19 -2 -5
-11 -39 -14 -37 -42 2 -36 17 3 30 1 30 -3 0 -4 -10 -9 -22 -11 -13 -2 -24
-11 -26 -22 -3 -16 1 -18 27 -14 39 6 51 -7 16 -16 -14 -4 -25 -14 -25 -22 0
-13 7 -15 36 -9 l36 6 -21 -22 c-33 -35 -6 -55 31 -22 16 14 18 15 18 0 0 -9
-4 -19 -10 -22 -15 -9 -12 -35 4 -35 8 0 21 9 29 21 9 12 18 16 21 10 4 -5 2
-12 -4 -16 -14 -8 -13 -45 1 -45 7 0 18 8 25 18 10 13 28 17 81 17 205 2 308
219 176 375 -34 41 -115 80 -167 80 -33 0 -37 2 -26 15 16 20 79 10 141 -21z
m-454 -147 c10 -20 6 -31 -28 -75 -22 -29 -43 -52 -47 -52 -4 0 -20 24 -36 53
-25 47 -27 56 -15 75 11 18 23 22 65 22 43 0 52 -3 61 -23z m411 -2 c38 -32
48 -72 28 -118 -15 -38 -59 -67 -98 -67 -40 0 -86 36 -97 76 -28 102 87 176
167 109z"/>
<path d="M3636 3413 c-17 -9 -64 -18 -105 -22 l-76 -6 82 -37 c45 -21 88 -38
96 -38 7 0 21 23 30 53 24 77 24 78 -27 50z"/>
<path d="M2272 3335 c0 -16 2 -22 5 -12 2 9 2 23 0 30 -3 6 -5 -1 -5 -18z"/>
<path d="M2899 3011 c-60 -60 -23 -151 61 -151 56 0 90 34 90 89 0 32 -6 44
-31 65 -41 35 -83 34 -120 -3z m99 -17 c24 -16 29 -53 12 -85 -16 -29 -27 -23
-22 11 5 33 -19 70 -45 70 -8 0 -11 5 -8 10 9 15 37 12 63 -6z"/>
<path d="M2100 3929 c-8 -17 -22 -39 -32 -49 -20 -18 -15 -52 6 -44 8 3 19 -9
28 -28 8 -18 12 -26 10 -18 -15 62 -14 70 9 80 23 10 23 10 -3 5 -32 -6 -35 3
-12 46 8 17 13 33 11 35 -2 3 -10 -10 -17 -27z"/>
<path d="M2052 3715 c0 -16 2 -22 5 -12 2 9 2 23 0 30 -3 6 -5 -1 -5 -18z"/>
<path d="M2042 3590 c0 -14 2 -19 5 -12 2 6 2 18 0 25 -3 6 -5 1 -5 -13z"/>
<path d="M2261 3077 c0 -9 -7 -26 -13 -37 -10 -15 -10 -22 0 -32 9 -9 16 -7
32 10 16 17 17 22 6 22 -8 0 -16 12 -19 28 -2 15 -5 19 -6 9z"/>
<path d="M2318 3043 c7 -3 16 -2 19 1 4 3 -2 6 -13 5 -11 0 -14 -3 -6 -6z"/>
<path d="M2292 2846 l-24 -44 26 -51 c37 -72 146 -183 233 -237 41 -26 113
-61 161 -77 75 -27 101 -31 192 -31 108 -1 141 8 159 42 9 16 2 17 -94 14 -86
-4 -117 0 -177 18 -196 58 -385 217 -434 363 -8 26 -16 47 -17 47 -1 0 -12
-20 -25 -44z"/>
<path d="M2390 2875 c0 -2 11 -28 24 -57 87 -196 411 -361 605 -308 40 11 91
48 91 67 0 5 -44 8 -97 8 -111 0 -184 16 -263 55 -56 28 -125 88 -156 134 -20
32 -204 122 -204 101z"/>
<path d="M2223 2728 c-24 -53 78 -184 212 -273 142 -95 291 -145 433 -145 69
0 85 3 102 20 11 11 20 23 20 28 0 4 -32 5 -70 4 -82 -4 -198 17 -290 53 -148
58 -304 179 -362 282 -17 29 -31 53 -32 53 -2 0 -8 -10 -13 -22z"/>
<path d="M2280 1948 c0 -95 -4 -179 -9 -186 -5 -8 -21 -12 -37 -10 -25 2 -29
8 -32 36 -3 29 -6 32 -38 32 -34 0 -34 0 -34 -45 0 -69 30 -95 110 -95 51 0
65 4 85 25 25 24 25 25 25 220 l0 195 -35 0 -35 0 0 -172z"/>
<path d="M2462 1919 c3 -197 3 -201 27 -220 34 -27 129 -27 165 2 l26 20 0
200 0 199 -35 0 -35 0 -2 -182 c-3 -183 -3 -183 -26 -186 -48 -7 -52 7 -52
194 l0 174 -36 0 -35 0 3 -201z"/>
<path d="M2800 1900 l0 -220 30 0 30 0 0 125 c0 69 3 125 8 125 4 0 18 -51 31
-112 30 -142 29 -140 54 -136 18 3 24 20 47 126 15 67 30 125 33 129 4 3 7
-53 7 -126 l0 -132 33 3 32 3 3 218 2 217 -48 0 -48 0 -29 -135 c-15 -75 -32
-132 -36 -128 -3 4 -19 65 -34 136 l-28 127 -44 0 -43 0 0 -220z"/>
<path d="M3220 1900 l0 -220 84 0 c69 0 88 4 110 21 24 19 26 26 26 99 0 58
-4 81 -16 91 -14 11 -14 13 0 21 12 7 16 27 16 88 0 111 -10 120 -130 120
l-90 0 0 -220z m150 95 l0 -55 -40 0 -40 0 0 55 0 55 40 0 40 0 0 -55z m-5
-185 l0 -55 -35 0 c-34 0 -35 1 -38 44 -5 62 2 73 40 69 33 -3 33 -3 33 -58z"/>
<path d="M3636 2093 c-3 -15 -24 -111 -46 -212 -22 -101 -40 -188 -40 -193 0
-4 15 -8 34 -8 35 0 46 15 46 68 0 20 5 22 54 22 l55 0 8 -42 c8 -39 12 -43
41 -46 42 -4 42 -5 -11 238 l-43 195 -46 3 c-43 3 -47 1 -52 -25z m70 -155
c20 -107 20 -108 -22 -108 -32 0 -36 2 -31 23 3 12 11 55 18 95 7 39 14 70 17
68 2 -3 10 -38 18 -78z"/>
<path d="M2165 1531 c-6 -11 9 -23 19 -14 9 9 7 23 -3 23 -6 0 -12 -4 -16 -9z"/>
<path d="M2787 1534 c-8 -8 1 -24 14 -24 5 0 9 7 9 15 0 15 -12 20 -23 9z"/>
<path d="M3080 1450 c0 -53 4 -90 10 -90 6 0 10 14 10 32 l0 32 29 -34 c16
-19 32 -32 35 -29 4 4 -5 21 -20 38 l-27 32 29 30 c35 36 20 39 -18 2 l-28
-27 0 52 c0 29 -4 52 -10 52 -6 0 -10 -37 -10 -90z"/>
<path d="M1960 1446 l0 -86 44 0 c65 0 101 47 61 80 -11 9 -12 16 -2 31 20 31
-2 53 -57 57 l-46 3 0 -85z m85 39 c0 -16 -8 -21 -37 -23 -35 -3 -38 -1 -38
23 0 24 3 26 38 23 29 -2 37 -7 37 -23z m10 -75 c0 -22 -5 -25 -42 -28 -42 -3
-43 -2 -43 28 0 30 1 31 43 28 37 -3 42 -6 42 -28z"/>
<path d="M2560 1445 l0 -85 44 0 c64 0 96 29 96 85 0 56 -32 85 -96 85 l-44 0
0 -85z m110 46 c5 -11 10 -32 10 -46 0 -47 -17 -65 -60 -65 l-40 0 0 65 0 65
40 0 c29 0 42 -5 50 -19z"/>
<path d="M3360 1446 l0 -86 44 0 c65 0 101 47 61 80 -11 9 -12 16 -2 31 20 31
-2 53 -57 57 l-46 3 0 -85z m85 39 c0 -16 -8 -21 -37 -23 -35 -3 -38 -1 -38
23 0 24 3 26 38 23 29 -2 37 -7 37 -23z m10 -75 c0 -22 -5 -25 -42 -28 -42 -3
-43 -2 -43 28 0 30 1 31 43 28 37 -3 42 -6 42 -28z"/>
<path d="M2350 1491 c0 -4 -11 -6 -23 -4 -29 6 -61 -23 -51 -46 10 -23 5 -72
-8 -89 -28 -33 58 -57 98 -28 28 22 7 50 -40 54 -45 4 -43 23 2 34 25 7 32 14
32 32 0 14 3 31 6 40 3 9 1 16 -5 16 -6 0 -11 -4 -11 -9z m-5 -41 c0 -18 -33
-26 -47 -12 -6 6 -7 15 -3 22 10 16 50 8 50 -10z m13 -102 c-5 -15 -42 -22
-64 -14 -25 10 -5 26 32 26 24 0 34 -4 32 -12z"/>
<path d="M2173 1425 c0 -38 2 -53 4 -32 2 20 2 52 0 70 -2 17 -4 1 -4 -38z"/>
<path d="M2790 1425 c0 -37 4 -65 10 -65 6 0 10 28 10 65 0 37 -4 65 -10 65
-6 0 -10 -28 -10 -65z"/>
<path d="M2915 1476 c-13 -9 -19 -26 -19 -51 0 -41 22 -65 59 -65 22 0 45 17
45 34 0 6 -5 5 -12 -2 -28 -28 -78 -7 -78 34 0 31 25 48 61 40 27 -5 30 -4 19
9 -16 19 -50 19 -75 1z"/>
<path d="M3576 1477 c-12 -9 -18 -26 -18 -52 0 -60 58 -88 95 -47 51 57 -17
143 -77 99z m69 -52 c0 -36 -3 -40 -27 -43 -21 -3 -30 2 -39 21 -16 36 4 69
39 65 24 -3 27 -7 27 -43z"/>
<path d="M3760 1475 c-18 -21 -3 -47 31 -55 13 -3 26 -14 27 -24 4 -17 -1 -18
-32 -13 -41 7 -49 -9 -9 -19 33 -9 58 7 58 36 0 18 -8 26 -32 32 -44 11 -46
42 -3 36 19 -3 29 -1 27 6 -6 18 -53 18 -67 1z"/>
<path d="M3921 1472 c-13 -24 -1 -41 35 -51 44 -11 38 -36 -9 -35 -30 1 -35
-1 -26 -12 15 -19 54 -18 74 2 22 22 15 36 -29 57 -42 20 -39 42 5 33 30 -6
40 8 13 18 -29 11 -53 6 -63 -12z"/>
</g>
</svg>
